<svg id="Capa_1" enable-background="new 0 0 512 512" height="512" viewBox="0 0 512 512" width="512" xmlns="http://www.w3.org/2000/svg"><g><g><path clip-rule="evenodd" d="m43.557 65.529c-19.843 0-36.057 16.215-36.057 36.059v366.853c0 19.815 16.214 36.059 36.057 36.059h424.886c19.814 0 36.057-16.243 36.057-36.059v-366.853c0-19.815-16.243-36.059-36.057-36.059-197.037 0-227.849 0-424.886 0z" fill="#c3ddff" fill-rule="evenodd"/></g><g><path clip-rule="evenodd" d="m45.484 108.958v352.084c0 3.005 2.466 5.443 5.443 5.443h410.118c3.005 0 5.443-2.438 5.443-5.443v-352.084c0-2.977-2.438-5.415-5.443-5.415h-69.534v1.474c0 74.867-60.662 135.532-135.525 135.532-74.835 0-135.525-60.665-135.525-135.532 0-.482.028-.992.028-1.474h-69.562c-2.976.001-5.443 2.439-5.443 5.415z" fill="#ecf4ff" fill-rule="evenodd"/></g><g><path clip-rule="evenodd" d="m158.474 105.018c0 26.931 10.913 51.31 28.545 68.971 17.66 17.661 42.038 28.575 68.967 28.575s51.307-10.914 68.967-28.575 28.573-42.04 28.573-68.971c0-14.061-2.976-27.413-8.334-39.489-4.904-11.056-11.792-21.034-20.239-29.482-17.66-17.633-42.038-28.547-68.967-28.547s-51.307 10.914-68.967 28.547c-8.419 8.448-15.335 18.426-20.239 29.482-5.33 12.076-8.306 25.428-8.306 39.489z" fill="#f9f7f8" fill-rule="evenodd"/></g><g><path clip-rule="evenodd" d="m288.414 34.403c8.447 8.448 15.335 18.426 20.239 29.482.255.539.482 1.106.709 1.644 4.904 11.651 7.625 24.436 7.625 37.845 0 26.931-10.913 51.31-28.573 68.971-9.184 9.185-20.183 16.555-32.428 21.488-7.143 2.892-14.712 4.961-22.592 6.095 7.257 1.729 14.825 2.636 22.592 2.636 26.929 0 51.307-10.914 68.967-28.575s28.573-42.04 28.573-68.971c0-14.061-2.976-27.413-8.334-39.489-4.904-11.056-11.792-21.034-20.239-29.482-17.66-17.633-42.038-28.547-68.967-28.547-4.734 0-9.383.34-13.918.992 4.791 1.134 9.439 2.608 13.918 4.422 12.246 4.962 23.244 12.304 32.428 21.489z" fill="#f0f0f0" fill-rule="evenodd"/></g><g><path clip-rule="evenodd" d="m393.807 65.529c19.843 0 36.057 16.243 36.057 36.059v1.956h31.181c3.005 0 5.443 2.438 5.443 5.415v352.084c0 3.005-2.438 5.443-5.443 5.443h-31.181v1.956c0 19.815-16.214 36.059-36.057 36.059h74.636c19.814 0 36.057-16.243 36.057-36.059v-366.854c0-19.815-16.243-36.059-36.057-36.059z" fill="#a4ccff" fill-rule="evenodd"/></g><g><path clip-rule="evenodd" d="m350.805 368.429h-189.638c-2.835 0-5.187 2.325-5.187 5.188v39.631c0 2.863 2.353 5.188 5.187 5.188h189.638c2.863 0 5.187-2.325 5.187-5.188v-39.631c0-2.864-2.324-5.188-5.187-5.188z" fill="#b3e59f" fill-rule="evenodd"/></g><g><path clip-rule="evenodd" d="m431.706 108.958v352.084c0 1.616-.709 3.09-1.843 4.082v1.361h31.181c3.005 0 5.443-2.438 5.443-5.443v-352.084c0-2.977-2.438-5.415-5.443-5.415h-31.181v1.361c1.134.993 1.843 2.438 1.843 4.054z" fill="#ddeafb" fill-rule="evenodd"/></g><g><path clip-rule="evenodd" d="m312.736 373.616v39.631c0 2.863-2.324 5.188-5.187 5.188h43.257c2.863 0 5.187-2.325 5.187-5.188v-39.631c0-2.863-2.324-5.188-5.187-5.188h-43.257c2.862.001 5.187 2.325 5.187 5.188z" fill="#95d6a4" fill-rule="evenodd"/></g><g><path d="m276.962 474.07h.004l184.078-.085c7.137 0 12.943-5.806 12.943-12.943v-352.084c0-7.121-5.806-12.915-12.943-12.915h-69.534c-4.143 0-7.5 3.358-7.5 7.5v1.474c0 70.597-57.432 128.032-128.025 128.032s-128.024-57.435-128.024-128.032c0-.171.006-.347.011-.523.01-.32.018-.64.018-.951 0-4.142-3.358-7.5-7.5-7.5h-69.563c-7.137 0-12.943 5.794-12.943 12.915v352.084c0 7.137 5.806 12.943 12.94 12.943l191.424.085c.001 0 .025-.085.026-.085 4.141 0 7.498-3.356 7.5-7.497.002-4.142-3.355-7.502-7.497-7.504l-189.393.001v-347.941h60.101c3.166 76.087 66.053 137.007 142.899 137.007 76.848 0 139.734-60.919 142.9-137.007h60.101v347.941l-182.028.084c-4.142.002-7.498 3.362-7.496 7.504.003 4.142 3.361 7.498 7.501 7.497z"/><path d="m264.887 81.057c-3.99-1.481-8.187-1.939-12.284-1.388l-10.038-21.913c-1.724-3.766-6.176-5.42-9.942-3.696-3.767 1.725-5.421 6.177-3.695 9.943l10.049 21.939c-8.152 7.285-11.011 19.317-6.22 29.747 2.852 6.208 7.947 10.932 14.348 13.303 2.894 1.072 5.896 1.605 8.892 1.605 3.631 0 7.25-.784 10.642-2.342 6.201-2.829 10.927-7.911 13.307-14.308 2.386-6.416 2.127-13.377-.728-19.591-2.836-6.198-7.926-10.921-14.331-13.299zm.999 27.66c-.98 2.635-2.924 4.727-5.491 5.898-2.566 1.179-5.435 1.289-8.079.311-2.643-.98-4.748-2.932-5.927-5.498-2.428-5.286-.097-11.572 5.196-14.012 2.563-1.174 5.433-1.28 8.081-.296 2.646.982 4.745 2.927 5.917 5.488 1.183 2.575 1.29 5.455.303 8.109z"/><path d="m504.5 269.964c4.143 0 7.5-3.358 7.5-7.5v-160.876c0-24.018-19.54-43.559-43.557-43.559h-118.538c-4.94-9.83-11.379-18.782-19.016-26.555-.196-.255-.405-.503-.638-.736-.231-.231-.477-.436-.729-.631-18.962-18.61-44.93-30.107-73.537-30.107-28.571 0-54.509 11.475-73.46 30.052-.281.211-.554.436-.809.691-.256.256-.481.529-.692.81-7.601 7.755-14.011 16.678-18.933 26.475h-118.534c-24.017.001-43.557 19.541-43.557 43.56v366.853c0 24.018 19.54 43.559 43.557 43.559h424.886c24.017 0 43.557-19.541 43.557-43.559v-171.336c0-4.142-3.358-7.5-7.5-7.5-4.143 0-7.5 3.358-7.5 7.5v171.336c0 15.747-12.81 28.558-28.556 28.558h-424.887c-15.747 0-28.557-12.811-28.557-28.558v-366.853c0-15.747 12.81-28.558 28.556-28.558h112.404c-3.234 10.091-4.987 20.838-4.987 31.989 0 28.61 11.498 54.581 30.109 73.544.193.25.398.495.627.724.231.232.478.439.73.634 18.959 18.631 44.932 30.143 73.545 30.143 28.65 0 54.654-11.535 73.623-30.2.223-.177.441-.365.647-.572.207-.207.395-.424.573-.648 18.663-18.971 30.198-44.975 30.198-73.627 0-11.151-1.754-21.898-4.989-31.989h112.406c15.747 0 28.556 12.811 28.556 28.558v160.876c.002 4.144 3.359 7.502 7.502 7.502zm-179.796-106.832-7.373-7.373c-2.93-2.929-7.679-2.929-10.607 0-2.93 2.929-2.93 7.678-.001 10.607l7.374 7.374c-13.903 11.776-31.411 19.418-50.611 21.009v-10.498c0-4.142-3.358-7.5-7.5-7.5-4.143 0-7.5 3.358-7.5 7.5v10.497c-19.195-1.592-36.697-9.234-50.595-21.011l7.381-7.366c2.932-2.926 2.937-7.675.011-10.607-2.926-2.933-7.675-2.937-10.607-.012l-7.39 7.374c-11.769-13.903-19.406-31.41-20.996-50.609h10.469c4.143 0 7.5-3.358 7.5-7.5s-3.357-7.5-7.5-7.5h-10.469c1.591-19.193 9.229-36.695 20.999-50.594l7.381 7.382c1.465 1.465 3.384 2.197 5.304 2.197 1.919 0 3.839-.732 5.303-2.197 2.93-2.929 2.93-7.678.001-10.607l-7.382-7.382c13.898-11.771 31.398-19.409 50.59-21v10.469c0 4.142 3.358 7.5 7.5 7.5 4.143 0 7.5-3.358 7.5-7.5v-10.469c19.198 1.59 36.704 9.228 50.606 20.998l-7.374 7.391c-2.926 2.932-2.92 7.681.012 10.607 1.465 1.461 3.381 2.191 5.298 2.191 1.922 0 3.845-.734 5.31-2.203l7.364-7.381c11.776 13.9 19.418 31.403 21.01 50.599h-10.497c-4.143 0-7.5 3.358-7.5 7.5s3.358 7.5 7.5 7.5h10.497c-1.592 19.202-9.233 36.71-21.008 50.614z"/><path d="m363.493 413.247v-39.631c0-6.996-5.692-12.688-12.688-12.688h-189.639c-6.996 0-12.688 5.692-12.688 12.688v39.631c0 6.996 5.692 12.688 12.688 12.688h189.639c6.997 0 12.688-5.692 12.688-12.688zm-15-2.313h-185.014v-35.005h185.014z"/></g></g></svg>