<svg id="_x33_0" enable-background="new 0 0 64 64" height="512" viewBox="0 0 64 64" width="512" xmlns="http://www.w3.org/2000/svg"><g><g><g><path d="m31.09 13.13c-.9.55-1.96.86-3.09.86-.33 0-.67 0-1 0-.01 0-.01 0-.02 0-2.48 0-4.91 0-5.98 0-.01 0-.01 0-.02 0-1.19 0-2.21-.7-2.69-1.71-1.39.77-2.29 2.23-2.29 3.86v.86h-.67c-1.84 0-3.33 1.49-3.33 3.33 0 1.05.49 2.04 1.33 2.67l2.67 2v7l-1.6-1.2c-2.02-1.51-3.62-3.45-4.71-5.64-1.1-2.2-1.69-4.64-1.69-7.16 0-8.84 7.16-16 16-16h4c1.66 0 3.16.67 4.24 1.76 1.09 1.08 1.76 2.58 1.76 4.24 0 2.18-1.17 4.09-2.91 5.13z" fill="#fcd770"/></g><g><path d="m26 54v6h-19c-2.76 0-5-2.24-5-5v-10c0-3.12 1.56-6.04 4.16-7.78 1.21-.8 2.59-1.31 4.03-1.49l2.86-.36.95 6.63 3.5-1.75 1.5 3.75-3 10h8z" fill="#ff826e"/></g><g><path d="m34.88 58.88-.72 1.18-.16-.06c0-3.31-2.69-6-6-6h-2-2l-3-10 1.5-3.75 3.5 1.75.95-6.63 2.86.36c1.44.18 2.82.69 4.03 1.49.05.04.11.08.16.12v13.66c0 .55.45 1 1 1h5v6h-3c-.83 0-1.58.34-2.12.88z" fill="#ff826e"/></g><g><path d="m21 44 3 10h-8l3-10z" fill="#b4dd7f"/></g><g><path d="m22.5 40.25-1.5 3.75h-2l-1.5-3.75 2.5-1.25z" fill="#a0d468"/></g><g><path d="m26.95 35.37-.95 6.63-3.5-1.75-2.5-1.25 4-4z" fill="#fc6e51"/></g><g><path d="m20 39-2.5 1.25-3.5 1.75-.95-6.63 2.95-.37z" fill="#fc6e51"/></g><g><path d="m34 60h-8v-6h2c3.31 0 6 2.69 6 6z" fill="#f0d0b4"/></g><g><path d="m31.09 13.14c.16.27 2.91 4.98 2.91 8.86l-2 1v4c0 .34-.03.68-.1 1-.46 2.28-2.48 4-4.9 4h-3v3l-4 4-4-4v-3-7l-2.67-2c-.84-.63-1.33-1.62-1.33-2.67 0-1.84 1.49-3.33 3.33-3.33h.67v-.86c0-1.63.9-3.09 2.29-3.86.48 1.01 1.5 1.71 2.69 1.71h.02 5.98.02 1c1.13 0 2.19-.31 3.09-.86z" fill="#f0d0b4"/></g><g><path d="m62 33v18c0 .55-.45 1-1 1h-9v-5c0-.55-.45-1-1-1h-6c-.55 0-1 .45-1 1v5h-4-5c-.55 0-1-.45-1-1v-13.66-4.34c0-.55.45-1 1-1h26c.55 0 1 .45 1 1z" fill="#ccd1d9"/></g><g><path d="m59 58c1.66 0 3 1.34 3 3 0 .55-.45 1-1 1h-26c-.55 0-1-.45-1-1 0-.33.05-.65.16-.94l.72-1.18c.54-.54 1.29-.88 2.12-.88h3 4 8z" fill="#969faa"/></g><g><path d="m52 52v6h-8v-6-5c0-.55.45-1 1-1h6c.55 0 1 .45 1 1z" fill="#aab2bd"/></g></g><g><path d="m27 17h-2c0 1.654 1.346 3 3 3s3-1.346 3-3h-2c0 .551-.448 1-1 1s-1-.449-1-1z"/><path d="m61 53c1.103 0 2-.897 2-2v-18c0-1.103-.897-2-2-2h-26c-1.103 0-2 .897-2 2v2.631c-.971-.45-2.005-.764-3.066-.896l-4.934-.618v-1.117h1.999.006c1.602 0 3.106-.624 4.238-1.756 1.133-1.133 1.757-2.64 1.757-4.244v-3.382l2-1v-.618c0-3.273-1.734-6.939-2.597-8.563.189-.153.372-.316.547-.49 1.321-1.322 2.05-3.079 2.05-4.95 0-3.858-3.139-6.997-6.997-6.997h-4.003c-9.374 0-17 7.626-17 17 0 5.323 2.542 10.407 6.8 13.6l1.2.9v1.617l-4.934.617c-1.587.198-3.128.771-4.458 1.658-2.885 1.924-4.608 5.143-4.608 8.612v9.996c0 3.309 2.691 6 6 6h26c0 1.103.897 2 2 2h26c1.103 0 2-.897 2-2 0-2.206-1.794-4-4-4h-6v-4zm-26-20h26v18h-8v-4c0-1.103-.897-2-2-2h-6c-1.103 0-2 .897-2 2v4h-8zm6 24v-4h2v4zm-21.255-12h.511l2.4 8h-5.312zm.578-2h-.645l-.907-2.267 1.229-.615 1.23.615zm-2.011-4.274-3.518 1.759-.607-4.251 1.452-.182zm3.376 0 2.673-2.673 1.452.182-.607 4.251zm11.289-17.332-1.977.988v4.618h-1.764c-.998 0-1.896-.555-2.342-1.447l-1.789.895c.789 1.574 2.372 2.552 4.131 2.552h1.212c-.173.297-.37.581-.619.83-.754.754-1.757 1.17-2.825 1.17-.001 0-.003 0-.004 0h-6v2h2v1.586l-3 3-3-3v-10.086l-3.066-2.3c-.585-.438-.934-1.136-.934-1.867 0-1.286 1.047-2.333 2.333-2.333h1.667v-1.858c0-.944.392-1.826 1.057-2.457.042.046.073.098.117.142.754.752 1.754 1.166 2.819 1.166h.009c1.223-.001 4.186 0 6.996.002h.007c.934 0 1.84-.182 2.678-.529.728 1.389 2.099 4.307 2.294 6.928zm-23.977-3.394c0-8.271 6.729-15 15-15h4.003c2.756 0 4.997 2.242 4.997 4.999 0 1.335-.521 2.59-1.465 3.534-.943.942-2.197 1.461-3.53 1.461-.002 0-.003 0-.005 0-.333 0-.668-.001-1.002-.001v-.001c-.002 0-.004 0-.005 0-.531 0-1.031-.207-1.407-.582-.378-.376-.586-.879-.586-1.414 0-1.1.896-1.996 1.996-1.996v-2c-2.203 0-3.996 1.792-3.996 3.996 0 .715.201 1.393.551 1.995-1.086 0-2.002 0-2.552.001-.002 0-.004 0-.005 0-.531 0-1.031-.207-1.407-.582-.379-.376-.587-.879-.587-1.414 0-1.1.896-1.996 1.996-1.996h.004l-.004-2c-2.203 0-3.996 1.792-3.996 3.996 0 .301.041.595.105.882-1.279.984-2.065 2.494-2.104 4.135-2.234.17-4.001 2.043-4.001 4.32 0 1.356.647 2.652 1.733 3.466l2.267 1.701v4.5c-3.757-2.818-6-7.304-6-12zm-6 37v-9.996c0-2.799 1.39-5.396 3.718-6.947 1.073-.716 2.316-1.178 3.597-1.338l1.887-.236 1.005 7.032 3.769-1.884.966 2.416-2.686 8.953h-4.256v-7.236l-1.105-2.211-1.789.895.894 1.788v7.346l-1.703 1.686 1.406 1.422 1.708-1.69h14.589v4h-18c-2.206 0-4-1.794-4-4zm24 4v-4h1c2.415 0 4.435 1.721 4.899 4zm1-6h-3.256l-2.686-8.953.966-2.416 3.769 1.884 1.005-7.032 1.887.236c1.171.146 2.304.556 3.314 1.172v13.109c0 1.103.897 2 2 2h4v4h-2c-.887 0-1.699.3-2.363.79-.928-2.779-3.549-4.79-6.636-4.79zm33.002 8h-26.002c0-1.103.897-2 2-2h22c1.103 0 2 .897 2.002 2zm-16.002-4v-10h6v10z"/></g></g></svg>